<svg width="256" height="297" viewBox="0 0 256 297" fill="none" xmlns="http://www.w3.org/2000/svg">
<path d="M255.42 222.75L127.71 297L0 222.75V74.25L127.71 0L255.42 74.25V222.75Z" fill="#3CB474"/>
<path d="M59.6177 215.724C59.6177 209.452 69.0519 192.574 87.9204 165.089C87.2664 162.69 86.9389 160.508 86.9389 158.545C86.9389 156.582 88.575 154.291 91.8472 151.674C95.119 149.056 97.6003 147.747 99.2909 147.747C99.5635 147.747 99.7547 147.747 99.8635 147.747C107.607 137.168 114.479 128.224 120.478 120.916C126.476 113.554 130.021 109.874 131.112 109.874C132.148 109.874 132.966 110.31 133.565 111.182C134.111 112 134.384 112.873 134.384 113.8C123.913 126.779 113.197 140.794 102.236 155.846L102.645 157.236L109.68 156.582C119.605 155.927 130.403 153.691 142.073 149.874C153.743 146.002 163.287 141.585 170.703 136.622C186.191 126.152 193.935 116.527 193.935 107.747C193.935 103.929 191.371 100.712 186.245 98.0942C181.119 95.4765 173.13 94.1677 162.278 94.1677C151.425 94.1677 136.674 96.8126 118.024 102.102C99.3728 107.447 86.3937 113.255 79.0863 119.526C76.9594 121.326 76.196 122.771 76.7957 123.861C77.3958 124.897 77.5046 125.47 77.1232 125.579C76.6868 125.743 76.0867 125.552 75.3233 125.007C72.5968 123.425 70.8513 121.462 70.0879 119.117C69.379 116.772 69.0245 115 69.0245 113.8C69.0245 112.655 69.352 111.809 70.006 111.264C74.3143 104.993 83.9667 99.0758 98.9639 93.5134C113.961 87.9507 127.812 84.2699 140.519 82.4702C153.225 80.725 162.605 79.8525 168.658 79.8525C174.766 79.8525 179.81 80.2342 183.791 80.9979C187.772 81.8157 191.344 83.5881 194.507 86.3149C199.361 90.4049 201.788 96.1036 201.788 103.411C201.788 110.61 199.088 117.29 193.689 123.452C188.345 129.615 181.446 135.15 172.994 140.058C164.541 144.966 154.288 149.383 142.236 153.31C128.276 157.891 115.406 160.181 103.627 160.181C107.771 170.652 116.169 181.204 128.821 191.838C141.473 202.527 151.916 207.871 160.151 207.871C163.423 207.871 166.286 207.08 168.74 205.499C171.249 203.917 172.693 201.954 173.075 199.609C173.075 198.955 173.402 198.764 174.057 199.036C174.33 199.418 174.466 199.745 174.466 200.018C173.43 208.798 165.959 213.188 152.053 213.188C144.091 213.188 135.801 211.088 127.185 206.889C118.514 202.69 111.152 197.455 105.099 191.184C98.9908 184.912 94.1648 178.422 90.62 171.715C76.7687 191.892 68.2067 206.099 64.9344 214.333C64.1166 216.405 63.0257 217.442 61.6627 217.442C60.2992 217.442 59.6177 216.869 59.6177 215.724Z" fill="#F5FFEB"/>
</svg>
